<?xml version="1.0" encoding="iso-8859-1"?>
<!-- Generator: Adobe Illustrator 19.0.0, SVG Export Plug-In . SVG Version: 6.00 Build 0)  -->
<svg version="1.1" id="Layer_1" xmlns="http://www.w3.org/2000/svg" xmlns:xlink="http://www.w3.org/1999/xlink" x="0px" y="0px"
	 viewBox="0 0 512 512" style="enable-background:new 0 0 512 512;" xml:space="preserve">
<g transform="translate(1 1)">
	<g>
		<path style="fill:#FFE100;" d="M254.845,511c-5.12,0-8.533-3.413-8.533-8.533V365.933c0-5.12,3.413-8.533,8.533-8.533
			s8.533,3.413,8.533,8.533v136.533C263.378,507.587,259.965,511,254.845,511z"/>
		<path style="fill:#FFE100;" d="M160.978,511c-5.12,0-8.533-3.413-8.533-8.533c0-5.12,3.413-8.533,8.533-8.533
			c46.933,0,85.333-38.4,85.333-85.333c0-5.12,3.413-8.533,8.533-8.533s8.533,3.413,8.533,8.533
			C263.378,464.92,217.298,511,160.978,511z"/>
		<path style="fill:#FFE100;" d="M348.711,511c-56.32,0-102.4-46.08-102.4-102.4c0-5.12,3.413-8.533,8.533-8.533
			s8.533,3.413,8.533,8.533c0,46.933,38.4,85.333,85.333,85.333c5.12,0,8.533,3.413,8.533,8.533
			C357.245,507.587,353.831,511,348.711,511z"/>
		<path style="fill:#FFE100;" d="M334.205,126.147c5.973-18.773-2.56-40.107-21.333-48.64C299.218,71.533,283.858,66.413,272.765,63
			c-9.387-2.56-15.36-11.093-15.36-21.333V16.92c0-5.12-4.267-9.387-9.387-9.387h-24.747h0.853c-5.12,0-9.387,4.267-9.387,9.387
			v24.747c0,10.24-6.827,18.773-16.213,21.333c-11.093,3.413-26.453,8.533-40.107,14.507c-18.773,8.533-27.307,29.013-21.333,48.64
			l27.307,81.92c10.24,30.72,10.24,63.147,0,93.867l-7.68,23.893c-2.56,6.827-2.56,13.653-1.707,20.48
			c1.707,9.387,8.533,19.627,24.747,19.627h42.667h68.267c17.067,0,23.04-10.24,24.747-19.627c1.707-6.827,0.853-14.507-1.707-20.48
			l-7.68-23.893c-10.24-30.72-10.24-63.147,0-93.867L334.205,126.147z"/>
	</g>
	<path style="fill:#FFA800;" d="M358.098,126.147c5.973-18.773-2.56-40.107-21.333-48.64C323.111,71.533,307.751,66.413,296.658,63
		c-9.387-2.56-16.213-11.947-16.213-21.333V16.92c0.853-5.12-3.413-9.387-8.533-9.387h-24.747h-0.853
		c5.12,0,9.387,4.267,9.387,9.387v24.747c0,10.24,6.827,18.773,16.213,21.333c11.093,3.413,26.453,8.533,40.107,14.507
		c18.773,8.533,27.307,29.013,21.333,48.64l-27.307,81.92c-10.24,30.72-10.24,63.147,0,93.867l7.68,23.893
		c2.56,6.827,2.56,13.653,1.707,20.48c-1.707,9.387-8.533,19.627-24.747,19.627h25.6c17.067,0,23.04-10.24,24.747-19.627
		c1.707-6.827,0.853-14.507-1.707-20.48l-7.68-23.893c-10.24-30.72-10.24-63.147,0-93.867L358.098,126.147z"/>
	<path style="fill:#FFE100;" d="M383.698,126.147c5.973-18.773-2.56-40.107-21.333-48.64C348.711,71.533,333.351,66.413,322.258,63
		c-9.387-2.56-16.213-11.947-16.213-21.333V16.92c0.853-5.12-3.413-9.387-8.533-9.387h-24.747h-0.853
		c5.12,0,9.387,4.267,9.387,9.387v24.747c0,10.24,6.827,18.773,16.213,21.333c11.093,3.413,26.453,8.533,40.107,14.507
		c18.773,8.533,27.307,29.013,21.333,48.64l-27.307,81.92c-10.24,30.72-10.24,63.147,0,93.867l7.68,23.893
		c2.56,6.827,2.56,13.653,1.707,20.48c-1.707,9.387-8.533,19.627-24.747,19.627h25.6c17.067,0,23.04-10.24,24.747-19.627
		c1.707-6.827,0.853-14.507-1.707-20.48l-7.68-23.893c-10.24-30.72-10.24-63.147,0-93.867L383.698,126.147z"/>
	<path style="fill:#FFFFFF;" d="M134.525,126.147c-5.973-18.773,2.56-40.107,20.48-48.64c13.653-5.973,29.013-11.093,40.107-14.507
		c10.24-2.56,16.213-11.093,16.213-21.333V16.92c0-5.12,4.267-9.387,9.387-9.387h24.747h0.853c-5.12,0-9.387,4.267-9.387,9.387
		v24.747c0,10.24-6.827,18.773-16.213,21.333c-11.093,3.413-26.453,8.533-40.107,14.507c-18.773,8.533-27.307,29.013-21.333,48.64
		l27.307,81.92c10.24,30.72,10.24,63.147,0,93.867l-7.68,23.893c-1.707,5.973-2.56,13.653-0.853,20.48
		c1.707,9.387,8.533,19.627,24.747,19.627h-25.6c-17.067,0-23.04-10.24-24.747-19.627c-1.707-6.827-0.853-14.507,1.707-20.48
		l7.68-23.893c10.24-30.72,10.24-63.147,0-93.867L134.525,126.147z"/>
	<path d="M314.578,374.467H178.045c-17.067,0-29.867-9.387-33.28-26.453c-1.707-7.68-0.853-17.067,1.707-25.6l7.68-23.893
		c9.387-28.16,9.387-59.733,0-88.747l-27.307-81.067c-7.68-23.893,3.413-48.64,25.6-58.88c13.653-5.973,29.867-11.093,40.96-14.507
		c5.973-1.707,10.24-7.68,10.24-13.653V16.92c0-10.24,7.68-17.92,17.92-17.92h49.493c10.24,0,17.92,7.68,17.92,17.92v24.747
		c0,5.973,4.267,11.947,10.24,13.653c11.093,3.413,27.307,8.533,40.96,14.507c22.187,10.24,33.28,34.987,25.6,58.88l0,0
		l-27.307,81.92c-9.387,28.16-9.387,59.733,0,88.747l7.68,23.893c2.56,8.533,3.413,17.067,1.707,25.6
		C344.445,365.08,331.645,374.467,314.578,374.467z M221.565,16.067C220.711,16.067,220.711,16.067,221.565,16.067l-0.853,25.6
		c0,13.653-8.533,25.6-22.187,29.867c-10.24,3.413-25.6,8.533-39.253,14.507c-14.507,5.973-21.333,23.04-16.213,37.547l27.307,81.92
		c10.24,32.427,10.24,67.413,0,98.987l-7.68,23.893c-1.707,5.973-2.56,11.093-0.853,16.213c1.707,8.533,6.827,12.8,16.213,12.8
		h136.533c9.387,0,14.507-4.267,16.213-12.8c0.853-5.12,0.853-10.24-0.853-16.213l-7.68-23.893
		c-11.093-32.427-11.093-67.413,0-98.987l27.307-81.92c5.12-14.507-2.56-31.573-16.213-37.547
		c-12.8-5.973-28.16-11.093-39.253-14.507c-13.653-4.267-22.187-16.213-22.187-29.867V16.92c0-0.853,0-0.853-0.853-0.853H221.565z"
		/>
	<path d="M246.311,109.933c-5.973,0-11.093,0-17.067-0.853c-34.987-2.56-60.587-14.507-67.413-29.867l15.36-6.827
		c4.267,9.387,26.453,17.92,53.76,20.48c39.253,3.413,75.093-5.973,85.333-21.333l14.507,9.387
		C316.285,101.4,280.445,109.933,246.311,109.933z"/>
	<path d="M246.311,511c-5.12,0-8.533-3.413-8.533-8.533V365.933c0-5.12,3.413-8.533,8.533-8.533c5.12,0,8.533,3.413,8.533,8.533
		v136.533C254.845,507.587,251.431,511,246.311,511z"/>
	<path d="M152.445,511c-5.12,0-8.533-3.413-8.533-8.533c0-5.12,3.413-8.533,8.533-8.533c46.933,0,85.333-38.4,85.333-85.333
		c0-5.12,3.413-8.533,8.533-8.533c5.12,0,8.533,3.413,8.533,8.533C254.845,464.92,208.765,511,152.445,511z"/>
	<path d="M340.178,511c-56.32,0-102.4-46.08-102.4-102.4c0-5.12,3.413-8.533,8.533-8.533c5.12,0,8.533,3.413,8.533,8.533
		c0,46.933,38.4,85.333,85.333,85.333c5.12,0,8.533,3.413,8.533,8.533C348.711,507.587,345.298,511,340.178,511z"/>
</g>
<g>
</g>
<g>
</g>
<g>
</g>
<g>
</g>
<g>
</g>
<g>
</g>
<g>
</g>
<g>
</g>
<g>
</g>
<g>
</g>
<g>
</g>
<g>
</g>
<g>
</g>
<g>
</g>
<g>
</g>
</svg>
